<svg width="45" height="45" viewBox="0 0 45 45" fill="none" xmlns="http://www.w3.org/2000/svg">
<mask id="mask0_2009_1294" style="mask-type:alpha" maskUnits="userSpaceOnUse" x="0" y="0" width="45" height="45">
<rect width="45" height="45" fill="#D9D9D9"/>
</mask>
<g mask="url(#mask0_2009_1294)">
<path fill-rule="evenodd" clip-rule="evenodd" d="M-91 33.0276V11.5559H-81.2509C-77.9015 11.5559 -76.2269 13.2985 -76.2269 16.7838V18.6509C-76.2269 19.3562 -76.4262 19.9579 -76.825 20.4558L-77.8716 21.7627L-76.6156 22.8519C-75.9577 23.412 -75.6288 24.2418 -75.6288 25.3413V27.7997C-75.6288 31.2849 -77.3034 33.0276 -80.6528 33.0276H-91ZM-86.6937 28.9822H-80.8322C-80.2341 28.9822 -79.9351 28.671 -79.9351 28.0486V24.9368C-79.9351 24.3144 -80.2341 24.0032 -80.8322 24.0032H-86.6937V28.9822ZM-86.6937 19.9579H-81.4304C-80.8323 19.9579 -80.5332 19.6467 -80.5332 19.0243V16.5348C-80.5332 15.9125 -80.8323 15.6013 -81.4304 15.6013H-86.6937V19.9579Z" fill="black"/>
<path d="M-71.9102 27.0528V10H-67.7833V27.4885C-67.7833 28.7747 -67.1453 29.4904 -65.8694 29.6357V33.3387C-69.8966 33.3387 -71.9102 31.2434 -71.9102 27.0528Z" fill="black"/>
<path d="M-62.6525 27.9864V16.5971H-58.5256V28.2976C-58.5256 28.9614 -58.2066 29.2934 -57.5686 29.2934H-53.2025V16.5971H-49.0756V33.0276H-57.8079C-61.0376 33.0276 -62.6525 31.3472 -62.6525 27.9864Z" fill="black"/>
<path fill-rule="evenodd" clip-rule="evenodd" d="M-45.0159 27.9864V21.6382C-45.0159 18.2775 -43.4011 16.5971 -40.1713 16.5971H-36.2836C-33.0539 16.5971 -31.439 18.2775 -31.439 21.6382V26.3994H-40.889V28.2976C-40.889 28.9614 -40.57 29.2934 -39.9321 29.2934H-32.0371V31.6272L-33.8314 33.0276H-40.1713C-43.4011 33.0276 -45.0159 31.3472 -45.0159 27.9864ZM-40.889 23.1008H-35.5659V21.3271C-35.5659 20.6632 -35.8849 20.3313 -36.5229 20.3313H-39.9321C-40.57 20.3313 -40.889 20.6632 -40.889 21.3271V23.1008Z" fill="black"/>
<path d="M-27.0719 33.0276V11.5559H-21.9282L-16.1266 24.4389L-10.325 11.5559H-5.18134V33.0276H-9.48768V19.46L-14.3323 30.2269H-17.9209L-22.7656 19.46V33.0276H-27.0719Z" fill="black"/>
<path fill-rule="evenodd" clip-rule="evenodd" d="M13.0849 10.6613C6.89129 10.6613 1.87043 15.8858 1.87043 22.3306C1.87043 28.7754 6.89129 34 13.0849 34H32.7101C38.9037 34 43.9245 28.7754 43.9245 22.3306C43.9245 15.8858 38.9037 10.6613 32.7101 10.6613H13.0849ZM13.0849 29.624C16.9558 29.624 20.0939 26.3586 20.0939 22.3306C20.0939 18.3026 16.9558 15.0373 13.0849 15.0373C9.21388 15.0373 6.07584 18.3026 6.07584 22.3306C6.07584 26.3586 9.21388 29.624 13.0849 29.624Z" fill="black"/>
<path d="M50.1149 11.5559V33.0276H54.4212V18.931L62.6153 33.0276H67.2805V11.5559H62.9741V25.6525L54.7801 11.5559H50.1149Z" fill="black"/>
<path d="M72.1933 11.5559V33.0276H76.4996V26.0259L78.6229 23.6298L84.6339 33.0276H88.6112L89 32.1251L81.4041 20.3935L88.2524 12.4583L87.8337 11.5559H83.7965L76.4996 20.0512V11.5559H72.1933Z" fill="black"/>
</g>
</svg>
