<svg width="92" height="42" viewBox="0 0 92 42" fill="none" xmlns="http://www.w3.org/2000/svg">
<path d="M21.3885 0C15.8485 -6.60632e-08 10.5355 2.20075 6.6181 6.1181C2.70075 10.0355 0.5 15.3485 0.5 20.8885C0.5 26.4285 2.70074 31.7415 6.6181 35.6589C10.5354 39.5762 15.8485 41.777 21.3885 41.777L21.3885 0Z" fill="#363A45"/>
<path d="M91.0183 41.7774C91.0176 36.4683 88.8162 31.3769 84.8983 27.6233C80.9805 23.8697 75.6671 21.7613 70.1271 21.7621C64.5872 21.7628 59.2744 23.8726 55.3575 27.6273C51.4407 31.3819 49.2406 36.4739 49.2413 41.7831L91.0183 41.7774Z" fill="url(#paint0_linear_667_1360)"/>
<path d="M24.8674 0C30.4073 -6.60632e-08 35.7204 2.20075 39.6378 6.1181C43.5551 10.0355 45.7559 15.3485 45.7559 20.8885C45.7559 26.4285 43.5551 31.7415 39.6378 35.6589C35.7204 39.5762 30.4073 41.777 24.8674 41.777L24.8674 0Z" fill="url(#paint1_linear_667_1360)"/>
<path d="M91.0129 -7.62939e-05C91.0136 5.30906 88.8136 10.4011 84.8967 14.1557C80.9799 17.9104 75.6671 20.0201 70.1271 20.0209C64.5872 20.0216 59.2738 17.9133 55.3559 14.1597C51.4381 10.4061 49.2367 5.31471 49.2359 0.00556354L91.0129 -7.62939e-05Z" fill="#363A45"/>
<defs>
<linearGradient id="paint0_linear_667_1360" x1="91.017" y1="31.7683" x2="49.24" y2="31.774" gradientUnits="userSpaceOnUse">
<stop stop-color="#005CFF"/>
<stop offset="1" stop-color="#EAD1FF"/>
</linearGradient>
<linearGradient id="paint1_linear_667_1360" x1="35.3116" y1="0" x2="35.3116" y2="41.777" gradientUnits="userSpaceOnUse">
<stop stop-color="#005CFF"/>
<stop offset="1" stop-color="#EAD1FF"/>
</linearGradient>
</defs>
</svg>
