<svg width="46" height="42" viewBox="0 0 46 42" fill="none" xmlns="http://www.w3.org/2000/svg">
<path d="M21.3885 0.00317383C15.8485 0.00317376 10.5355 2.20392 6.6181 6.12127C2.70075 10.0386 0.5 15.3517 0.5 20.8917C0.5 26.4316 2.70074 31.7447 6.6181 35.6621C10.5354 39.5794 15.8485 41.7802 21.3885 41.7802L21.3885 0.00317383Z" fill="url(#paint0_linear_667_1350)"/>
<path d="M24.8674 0.00317383C30.4073 0.00317376 35.7204 2.20392 39.6378 6.12127C43.5551 10.0386 45.7559 15.3517 45.7559 20.8917C45.7559 26.4316 43.5551 31.7447 39.6378 35.6621C35.7204 39.5794 30.4073 41.7802 24.8674 41.7802L24.8674 0.00317383Z" fill="#363A45"/>
<defs>
<linearGradient id="paint0_linear_667_1350" x1="10.9442" y1="0.00317383" x2="10.9442" y2="41.7802" gradientUnits="userSpaceOnUse">
<stop stop-color="#005CFF"/>
<stop offset="1" stop-color="#EAD1FF"/>
</linearGradient>
</defs>
</svg>
