<svg width="43" height="42" viewBox="0 0 43 42" fill="none" xmlns="http://www.w3.org/2000/svg">
<path d="M42.282 41.7774C42.2813 36.4683 40.0798 31.3769 36.162 27.6233C32.2441 23.8697 26.9308 21.7613 21.3908 21.7621C15.8508 21.7628 10.538 23.8726 6.6212 27.6273C2.70435 31.3819 0.504293 36.4739 0.505006 41.7831L42.282 41.7774Z" fill="#363A45"/>
<path d="M42.2766 -7.62939e-05C42.2773 5.30906 40.0773 10.4011 36.1604 14.1557C32.2436 17.9104 26.9308 20.0201 21.3908 20.0209C15.8508 20.0216 10.5375 17.9133 6.61962 14.1597C2.70175 10.4061 0.500323 5.31471 0.499603 0.00556354L42.2766 -7.62939e-05Z" fill="url(#paint0_linear_667_1355)"/>
<defs>
<linearGradient id="paint0_linear_667_1355" x1="42.2779" y1="10.009" x2="0.500953" y2="10.0146" gradientUnits="userSpaceOnUse">
<stop stop-color="#005CFF"/>
<stop offset="1" stop-color="#EAD1FF"/>
</linearGradient>
</defs>
</svg>
