<svg width="806" height="356" viewBox="0 0 806 356" fill="none" xmlns="http://www.w3.org/2000/svg">
<path fill-rule="evenodd" clip-rule="evenodd" d="M178 355C220.36 355 259.245 340.12 289.712 315.301C289.191 314.871 288.673 314.438 288.158 314.002L288.481 313.621L288.804 313.239C289.366 313.714 289.931 314.186 290.5 314.655C329.889 282.191 355 233.028 355 178C355 122.972 329.889 73.809 290.5 41.3452C289.931 41.8138 289.366 42.2858 288.803 42.7613L288.481 42.3794L288.158 41.9975C288.673 41.5619 289.191 41.1291 289.712 40.6993C259.245 15.8805 220.36 1 178 1C80.2456 1 1 80.2456 1 178C1 275.754 80.2456 355 178 355ZM178 356C220.672 356 259.838 340.984 290.5 315.948C292.292 317.411 294.113 318.84 295.961 320.234L296.262 319.834L296.563 319.435C294.778 318.09 293.02 316.711 291.288 315.301C330.812 282.652 356 233.268 356 178C356 122.732 330.812 73.3475 291.288 40.6993C293.02 39.2888 294.778 37.9104 296.563 36.565L296.262 36.1658L295.961 35.7665C294.113 37.16 292.292 38.5888 290.5 40.0518C259.838 15.0158 220.672 0 178 0C79.6933 0 0 79.6933 0 178C0 276.307 79.6933 356 178 356ZM580.931 183.006L580.431 182.992L579.931 182.978C579.977 181.324 580 179.665 580 178C580 176.335 579.977 174.676 579.931 173.022L580.431 173.008L580.931 172.994C580.977 174.657 581 176.326 581 178C581 179.674 580.977 181.343 580.931 183.006ZM580.379 163.026L579.881 163.067L579.383 163.109C579.106 159.793 578.739 156.504 578.282 153.243L578.778 153.174L579.273 153.104C579.732 156.384 580.101 159.692 580.379 163.026ZM577.612 143.261L577.121 143.358L576.631 143.455C575.986 140.196 575.252 136.969 574.431 133.777L574.915 133.652L575.399 133.528C576.225 136.738 576.964 139.983 577.612 143.261ZM572.639 123.928L572.162 124.08L571.686 124.231C570.678 121.067 569.584 117.942 568.406 114.858L568.873 114.68L569.34 114.501C570.525 117.603 571.625 120.746 572.639 123.928ZM565.515 105.277L565.059 105.482L564.602 105.686C563.246 102.659 561.807 99.6776 560.288 96.7437L560.732 96.5138L561.176 96.284C562.703 99.2345 564.151 102.233 565.515 105.277ZM556.339 87.5495C554.643 84.6805 552.868 81.8631 551.019 79.1004L550.603 79.3786L550.188 79.6567C552.027 82.4039 553.791 85.2055 555.478 88.0584L555.908 87.804L556.339 87.5495ZM545.234 70.9614L544.834 71.2624L544.435 71.5633C542.441 68.918 540.375 66.3304 538.239 63.8035L538.621 63.4807L539.002 63.1579C541.15 65.6991 543.228 68.3012 545.234 70.9614ZM532.346 55.7146L531.983 56.0581L531.62 56.4017C529.345 53.9965 527.003 51.6551 524.598 49.3804L524.942 49.0171L525.285 48.6538C527.704 50.9413 530.059 53.2959 532.346 55.7146ZM517.842 41.9975L517.519 42.3794L517.197 42.7612C516.634 42.2858 516.069 41.8138 515.5 41.3452C476.111 73.809 451 122.972 451 178C451 233.028 476.111 282.191 515.5 314.655C516.068 314.186 516.634 313.714 517.197 313.239L517.519 313.621L517.842 314.002C517.327 314.438 516.809 314.871 516.288 315.301C546.755 340.12 585.64 355 628 355C725.754 355 805 275.754 805 178C805 80.2456 725.754 1 628 1C585.64 1 546.755 15.8805 516.288 40.6993C516.809 41.1291 517.327 41.5619 517.842 41.9975ZM515.5 40.0518C546.162 15.0158 585.328 0 628 0C726.307 0 806 79.6933 806 178C806 276.307 726.307 356 628 356C585.328 356 546.162 340.984 515.5 315.948C513.708 317.411 511.887 318.84 510.039 320.234L509.738 319.834L509.437 319.435C511.222 318.09 512.98 316.711 514.712 315.301C475.188 282.652 450 233.268 450 178C450 122.732 475.188 73.3475 514.712 40.6992C512.98 39.2888 511.222 37.9104 509.437 36.565L509.738 36.1657L510.039 35.7665C511.887 37.16 513.708 38.5888 515.5 40.0518ZM501.9 29.9814L501.621 30.3968L501.343 30.8123C498.596 28.9731 495.795 27.2088 492.942 25.5223L493.196 25.0919L493.45 24.6614C496.32 26.3575 499.137 28.1318 501.9 29.9814ZM484.716 19.8239C481.766 18.2965 478.767 16.8493 475.723 15.4851L475.518 15.9413L475.314 16.3976C478.341 17.7541 481.322 19.1932 484.256 20.7119L484.486 20.2679L484.716 19.8239ZM466.499 11.6599L466.32 12.127L466.142 12.5941C463.058 11.4161 459.932 10.3219 456.769 9.31425L456.92 8.83783L457.072 8.36141C460.254 9.37479 463.397 10.4752 466.499 11.6599ZM447.472 5.6007L447.348 6.08493L447.223 6.56917C444.031 5.7481 440.804 5.01383 437.545 4.36904L437.642 3.87855L437.739 3.38806C441.017 4.03651 444.262 4.77495 447.472 5.6007ZM427.896 1.72718L427.826 2.22236L427.757 2.71753C424.496 2.26116 421.207 1.89363 417.891 1.61748L417.933 1.1192L417.974 0.620928C421.308 0.898633 424.616 1.26823 427.896 1.72718ZM408.006 0.069028L407.992 0.568837L407.978 1.06865C406.324 1.02298 404.665 1 403 1C401.335 1 399.676 1.02298 398.022 1.06865L398.008 0.568839L397.994 0.0690293C399.657 0.0231103 401.326 0 403 0C404.674 0 406.343 0.0231099 408.006 0.069028ZM388.026 0.620932L388.067 1.11921L388.109 1.61748C384.793 1.89364 381.504 2.26117 378.243 2.71754L378.174 2.22236L378.104 1.72719C381.384 1.26824 384.692 0.898637 388.026 0.620932ZM368.261 3.38806L368.358 3.87855L368.455 4.36905C365.196 5.01383 361.969 5.7481 358.777 6.56918L358.652 6.08494L358.527 5.6007C361.738 4.77495 364.983 4.03651 368.261 3.38806ZM348.928 8.36141L349.08 8.83784L349.231 9.31426C346.068 10.3219 342.942 11.4161 339.858 12.5941L339.68 12.127L339.501 11.6599C342.603 10.4752 345.746 9.37479 348.928 8.36141ZM330.277 15.4851L330.482 15.9414L330.686 16.3976C327.659 17.7541 324.678 19.1932 321.744 20.7119L321.514 20.2679L321.284 19.8239C324.234 18.2965 327.233 16.8493 330.277 15.4851ZM312.55 24.6614C309.68 26.3575 306.863 28.1318 304.1 29.9814L304.379 30.3968L304.657 30.8123C307.404 28.9731 310.205 27.2088 313.058 25.5223L312.804 25.0919L312.55 24.6614ZM280.715 48.6539L281.058 49.0171L281.402 49.3804C278.996 51.6551 276.655 53.9965 274.38 56.4017L274.017 56.0581L273.654 55.7146C275.941 53.2959 278.296 50.9413 280.715 48.6539ZM266.998 63.158L267.379 63.4807L267.761 63.8035C265.625 66.3304 263.559 68.918 261.565 71.5634L261.166 71.2624L260.766 70.9614C262.772 68.3012 264.85 65.6991 266.998 63.158ZM254.981 79.1004L255.397 79.3786L255.812 79.6567C253.973 82.4039 252.209 85.2055 250.522 88.0584L250.092 87.804L249.661 87.5496C251.357 84.6805 253.132 81.8631 254.981 79.1004ZM244.824 96.284C243.297 99.2345 241.849 102.233 240.485 105.277L240.941 105.482L241.398 105.686C242.754 102.659 244.193 99.6776 245.712 96.7437L245.268 96.5139L244.824 96.284ZM236.66 114.501L237.127 114.68L237.594 114.858C236.416 117.942 235.322 121.068 234.314 124.231L233.838 124.08L233.361 123.928C234.375 120.746 235.475 117.603 236.66 114.501ZM230.601 133.528L231.085 133.652L231.569 133.777C230.748 136.969 230.014 140.196 229.369 143.455L228.879 143.358L228.388 143.261C229.036 139.983 229.775 136.738 230.601 133.528ZM226.727 153.104L227.222 153.174L227.718 153.243C227.261 156.504 226.894 159.793 226.617 163.109L226.119 163.067L225.621 163.026C225.899 159.692 226.268 156.384 226.727 153.104ZM225.069 172.994C225.023 174.657 225 176.326 225 178C225 179.674 225.023 181.343 225.069 183.006L225.569 182.992L226.069 182.978C226.023 181.324 226 179.665 226 178C226 176.335 226.023 174.676 226.069 173.022L225.569 173.008L225.069 172.994ZM225.621 192.974L226.119 192.933L226.617 192.891C226.894 196.207 227.261 199.496 227.718 202.757L227.222 202.826L226.727 202.896C226.268 199.616 225.899 196.308 225.621 192.974ZM228.388 212.739L228.879 212.642L229.369 212.545C230.014 215.804 230.748 219.031 231.569 222.223L231.085 222.348L230.601 222.473C229.775 219.262 229.037 216.017 228.388 212.739ZM233.361 232.072L233.838 231.92L234.314 231.769C235.322 234.932 236.416 238.058 237.594 241.142L237.127 241.32L236.66 241.499C235.475 238.397 234.375 235.254 233.361 232.072ZM240.485 250.723L240.941 250.518L241.398 250.314C242.754 253.341 244.193 256.322 245.712 259.256L245.268 259.486L244.824 259.716C243.297 256.766 241.849 253.767 240.485 250.723ZM249.661 268.45L250.092 268.196L250.522 267.942C252.209 270.795 253.973 273.596 255.812 276.343L255.397 276.621L254.981 276.9C253.132 274.137 251.357 271.32 249.661 268.45ZM260.766 285.039L261.166 284.738L261.565 284.437C263.559 287.082 265.625 289.67 267.761 292.197L267.379 292.519L266.998 292.842C264.85 290.301 262.772 287.699 260.766 285.039ZM273.654 300.285L274.017 299.942L274.38 299.598C276.655 302.004 278.997 304.345 281.402 306.62L281.058 306.983L280.715 307.346C278.296 305.059 275.941 302.704 273.654 300.285ZM304.1 326.019L304.379 325.603L304.657 325.188C307.404 327.027 310.205 328.791 313.058 330.478L312.804 330.908L312.55 331.339C309.68 329.643 306.863 327.868 304.1 326.019ZM321.284 336.176C324.234 337.703 327.233 339.151 330.277 340.515L330.482 340.059L330.686 339.602C327.659 338.246 324.678 336.807 321.744 335.288L321.514 335.732L321.284 336.176ZM339.501 344.34L339.68 343.873L339.858 343.406C342.942 344.584 346.068 345.678 349.231 346.686L349.08 347.162L348.928 347.639C345.746 346.625 342.603 345.525 339.501 344.34ZM358.528 350.399L358.652 349.915L358.777 349.431C361.969 350.252 365.196 350.986 368.455 351.631L368.358 352.121L368.261 352.612C364.983 351.964 361.738 351.225 358.528 350.399ZM378.104 354.273L378.174 353.778L378.243 353.282C381.504 353.739 384.793 354.106 388.109 354.383L388.067 354.881L388.026 355.379C384.692 355.101 381.384 354.732 378.104 354.273ZM397.994 355.931L398.008 355.431L398.022 354.931C399.676 354.977 401.335 355 403 355C404.665 355 406.324 354.977 407.978 354.931L407.992 355.431L408.006 355.931C406.343 355.977 404.674 356 403 356C401.326 356 399.657 355.977 397.994 355.931ZM417.974 355.379L417.933 354.881L417.891 354.383C421.207 354.106 424.496 353.739 427.757 353.282L427.826 353.778L427.896 354.273C424.616 354.732 421.308 355.101 417.974 355.379ZM437.739 352.612L437.642 352.121L437.545 351.631C440.804 350.986 444.031 350.252 447.223 349.431L447.348 349.915L447.472 350.399C444.262 351.225 441.017 351.964 437.739 352.612ZM457.072 347.639L456.92 347.162L456.769 346.686C459.932 345.678 463.058 344.584 466.142 343.406L466.32 343.873L466.499 344.34C463.397 345.525 460.254 346.625 457.072 347.639ZM475.723 340.515L475.518 340.059L475.314 339.602C478.341 338.246 481.322 336.807 484.256 335.288L484.486 335.732L484.716 336.176C481.766 337.703 478.767 339.151 475.723 340.515ZM493.45 331.339L493.196 330.908L492.942 330.478C495.795 328.791 498.596 327.027 501.343 325.188L501.621 325.603L501.9 326.019C499.137 327.868 496.32 329.643 493.45 331.339ZM525.285 307.346L524.942 306.983L524.598 306.62C527.004 304.345 529.345 302.003 531.62 299.598L531.983 299.942L532.346 300.285C530.059 302.704 527.704 305.059 525.285 307.346ZM539.002 292.842L538.621 292.519L538.239 292.197C540.375 289.67 542.441 287.082 544.435 284.437L544.834 284.738L545.234 285.039C543.228 287.699 541.15 290.301 539.002 292.842ZM551.019 276.9L550.603 276.621L550.188 276.343C552.027 273.596 553.791 270.795 555.478 267.942L555.908 268.196L556.339 268.45C554.643 271.32 552.868 274.137 551.019 276.9ZM561.176 259.716C562.703 256.766 564.151 253.767 565.515 250.723L565.059 250.518L564.602 250.314C563.246 253.341 561.807 256.322 560.288 259.256L560.732 259.486L561.176 259.716ZM569.34 241.499L568.873 241.32L568.406 241.142C569.584 238.058 570.678 234.932 571.686 231.769L572.162 231.92L572.639 232.072C571.625 235.254 570.525 238.397 569.34 241.499ZM575.399 222.472L574.915 222.348L574.431 222.223C575.252 219.031 575.986 215.804 576.631 212.545L577.121 212.642L577.612 212.739C576.964 216.017 576.225 219.262 575.399 222.472ZM579.273 202.896L578.778 202.826L578.282 202.757C578.739 199.496 579.106 196.207 579.383 192.891L579.881 192.933L580.379 192.974C580.101 196.308 579.732 199.616 579.273 202.896Z" fill="url(#paint0_linear_511_913)"/>
<defs>
<linearGradient id="paint0_linear_511_913" x1="806" y1="214.07" x2="-0.00370664" y2="215.106" gradientUnits="userSpaceOnUse">
<stop stop-color="#005CFF"/>
<stop offset="1" stop-color="#EAD1FF"/>
</linearGradient>
</defs>
</svg>
