<svg width="24" height="24" viewBox="0 0 24 24" fill="none" xmlns="http://www.w3.org/2000/svg">
<path d="M12.001 12.75C13.149 12.75 14.279 12.83 15.384 12.987C16.421 13.133 17.25 13.953 17.25 15C17.25 18.728 14.9 21.75 12 21.75C9.09997 21.75 6.75097 18.728 6.75097 15C6.75097 13.954 7.58097 13.133 8.61697 12.987C9.73804 12.829 10.8688 12.7498 12.001 12.75ZM12.001 12.75C14.884 12.75 17.648 13.258 20.208 14.19C20.0872 16.2513 19.7 18.2882 19.056 20.25M12.001 12.75C9.11797 12.75 6.35397 13.258 3.79297 14.19C3.91797 16.294 4.31297 18.326 4.94597 20.25M12.001 12.75C12.3052 12.7501 12.6063 12.6884 12.8861 12.5688C13.1659 12.4491 13.4184 12.274 13.6286 12.054C13.8387 11.8339 14.002 11.5735 14.1087 11.2886C14.2153 11.0036 14.263 10.7 14.249 10.396M12.001 12.75C11.6967 12.7501 11.3956 12.6884 11.1158 12.5688C10.8361 12.4491 10.5835 12.274 10.3734 12.054C10.1632 11.8339 9.9999 11.5735 9.89327 11.2886C9.78663 11.0036 9.7389 10.7 9.75297 10.396M14.249 10.396C14.2222 9.81784 13.9737 9.27221 13.555 8.87254C13.1363 8.47287 12.5798 8.24992 12.001 8.25002M14.249 10.396C16.0249 10.2315 17.7778 9.86859 19.473 9.31402C19.418 8.18702 19.286 7.08002 19.081 6.00002M9.75297 10.396C9.77972 9.81784 10.0283 9.27221 10.4469 8.87254C10.8656 8.47287 11.4222 8.24992 12.001 8.25002M9.75297 10.396C7.94597 10.228 6.19797 9.86002 4.52997 9.31402C4.58374 8.20161 4.71472 7.09428 4.92197 6.00002M12.001 8.25002C12.996 8.25002 13.972 8.17002 14.923 8.01402C15.326 7.94802 15.663 7.65602 15.718 7.25202C15.8204 6.47882 15.681 5.69286 15.319 5.00202M12.001 8.25002C11.006 8.25002 10.031 8.17002 9.07897 8.01402C8.67697 7.94802 8.33897 7.65602 8.28397 7.25202C8.17824 6.47767 8.31814 5.68966 8.68397 4.99902M8.68397 4.99902C8.25802 4.71537 7.86991 4.37967 7.52897 3.99802C7.59897 3.36802 7.79897 2.77602 8.10297 2.25102M8.68397 4.99902C9.00231 4.39496 9.47954 3.89029 10.0642 3.53754C10.6488 3.18479 11.3187 2.99836 12.0015 2.99836C12.6843 2.99836 13.3541 3.18479 13.9388 3.53754C14.5234 3.89029 15.0006 4.39596 15.319 5.00002C15.746 4.71702 16.134 4.38002 16.474 4.00102C16.4061 3.38341 16.2103 2.78673 15.899 2.24902" stroke="black" stroke-width="1.5" stroke-linecap="round" stroke-linejoin="round"/>
</svg>
