<svg width="40" height="41" viewBox="0 0 40 41" fill="none" xmlns="http://www.w3.org/2000/svg">
<g clip-path="url(#clip0_617_5782)">
<path d="M36.6557 13.1037L39.656 10.1034L39.656 10.1033C40.2828 9.47631 40.0978 8.41816 39.2985 8.03948L39.2985 8.03946L24.4547 1.00821L24.4547 1.0082C24.2159 0.895088 23.948 0.858575 23.6876 0.903665C23.4272 0.948755 23.1871 1.07324 23.0002 1.26008L23.0002 1.26013L19.9999 4.26047L16.9997 1.2602L16.9997 1.26016C16.8128 1.07332 16.5727 0.948833 16.3124 0.903743C16.052 0.858653 15.784 0.895166 15.5452 1.00828L15.5452 1.00829L0.701427 8.03954C-0.0995973 8.41897 -0.281764 9.47777 0.343948 10.1035L3.34422 13.1037L0.343952 16.1039L0.343948 16.104C-0.283033 16.7309 -0.0979131 17.7892 0.701417 18.1679L0.701429 18.1679L3.87492 19.6711V31.8537C3.87492 32.3294 4.13848 32.7659 4.55928 32.9875L4.55952 32.9876L5.11989 33.2825C7.80055 34.6935 19.1921 40.6893 19.4191 40.8076L19.4191 40.8076C19.775 40.9891 20.2062 40.9999 20.5916 40.8027L20.5916 40.8027L20.5966 40.8L35.4404 32.9875C35.6469 32.8788 35.8199 32.7158 35.9405 32.5159C36.0612 32.3161 36.1249 32.0871 36.1249 31.8537V19.6711L39.2984 18.1679C40.0999 17.7883 40.2811 16.7294 39.656 16.104L39.6559 16.104L36.6557 13.1037ZM6.4375 20.8849L15.5453 25.1991L15.5453 25.1991C15.7841 25.3122 16.0521 25.3487 16.3124 25.3036C16.5728 25.2585 16.8129 25.134 16.9997 24.9472L16.9998 24.9471L18.7187 23.2282V37.544L6.43743 31.0802L6.4375 20.8849ZM24.4548 25.1991L33.5624 20.8849V31.0802L21.2812 37.544V23.2282L23.0002 24.9472L23.0003 24.9473C23.1872 25.1341 23.4272 25.2586 23.6876 25.3036L23.7729 24.811L23.6876 25.3037C23.9479 25.3487 24.2159 25.3122 24.4547 25.1992L24.4548 25.1991ZM19.9999 18.7172L8.14917 13.1037L19.9999 7.49021L31.8506 13.1037L19.9999 18.7172ZM34.5762 11.5593L22.1914 5.69288L24.1737 3.71068L36.5584 9.57713L34.5762 11.5593ZM5.4237 11.5592L3.4415 9.57705L15.8262 3.71068L17.8084 5.69287L5.4237 11.5592ZM15.8262 22.4968L3.4415 16.6304L5.4237 14.6482L17.8084 20.5146L15.8262 22.4968ZM36.5584 16.6303L24.1737 22.4967L22.1915 20.5145L34.5762 14.6481L36.5584 16.6303Z" fill="url(#paint0_linear_617_5782)" stroke="url(#paint1_linear_617_5782)"/>
</g>
<defs>
<linearGradient id="paint0_linear_617_5782" x1="39.5311" y1="24.8739" x2="0.468518" y2="24.896" gradientUnits="userSpaceOnUse">
<stop stop-color="#005CFF"/>
<stop offset="1" stop-color="#EAD1FF"/>
</linearGradient>
<linearGradient id="paint1_linear_617_5782" x1="39.5311" y1="24.8739" x2="0.468518" y2="24.896" gradientUnits="userSpaceOnUse">
<stop stop-color="#005CFF"/>
<stop offset="1" stop-color="#EAD1FF"/>
</linearGradient>
<clipPath id="clip0_617_5782">
<rect width="40" height="40" fill="white" transform="translate(0 0.916016)"/>
</clipPath>
</defs>
</svg>
