<svg width="16" height="17" viewBox="0 0 16 17" fill="none" xmlns="http://www.w3.org/2000/svg">
<g clip-path="url(#clip0_727_1727)">
<path d="M8 16.49C10.1217 16.49 12.1566 15.6471 13.6569 14.1468C15.1571 12.6466 16 10.6117 16 8.48999C16 6.36826 15.1571 4.33343 13.6569 2.83314C12.1566 1.33285 10.1217 0.48999 8 0.48999C5.87827 0.48999 3.84344 1.33285 2.34315 2.83314C0.842855 4.33343 0 6.36826 0 8.48999C0 10.6117 0.842855 12.6466 2.34315 14.1468C3.84344 15.6471 5.87827 16.49 8 16.49ZM5.46875 5.95874C5.7625 5.66499 6.2375 5.66499 6.52812 5.95874L7.99687 7.42749L9.46562 5.95874C9.75937 5.66499 10.2344 5.66499 10.525 5.95874C10.8156 6.25249 10.8187 6.72749 10.525 7.01812L9.05625 8.48687L10.525 9.95562C10.8187 10.2494 10.8187 10.7244 10.525 11.015C10.2312 11.3056 9.75625 11.3087 9.46562 11.015L7.99687 9.54624L6.52812 11.015C6.23438 11.3087 5.75938 11.3087 5.46875 11.015C5.17812 10.7212 5.175 10.2462 5.46875 9.95562L6.9375 8.48687L5.46875 7.01812C5.175 6.72437 5.175 6.24937 5.46875 5.95874Z" fill="#EE6C4D"/>
</g>
<defs>
<clipPath id="clip0_727_1727">
<rect width="16" height="16" fill="white" transform="translate(0 0.48999)"/>
</clipPath>
</defs>
</svg>
