<svg width="40" height="41" viewBox="0 0 40 41" fill="none" xmlns="http://www.w3.org/2000/svg">
<g clip-path="url(#clip0_617_5896)">
<path d="M33.5621 2.8029L33.5627 2.80362L40.2291 10.8033L40.2293 10.8035L33.5621 2.8029ZM33.5621 2.8029C33.4526 2.67191 33.3156 2.56655 33.1609 2.49425C33.0062 2.42195 32.8375 2.38446 32.6667 2.38442H32.6666M33.5621 2.8029L32.6666 2.38442M32.6666 2.38442H7.33384M32.6666 2.38442H7.33384M6.43746 2.80362L6.43766 2.80338C6.54722 2.67208 6.68432 2.56648 6.83924 2.49408C6.99408 2.42172 7.16293 2.38428 7.33384 2.38442M6.43746 2.80362L7.33413 2.38442C7.33403 2.38442 7.33394 2.38442 7.33384 2.38442M6.43746 2.80362L-0.228415 10.8027M6.43746 2.80362L-0.228415 10.8027M-0.228415 10.8027C-0.228546 10.8029 -0.228677 10.803 -0.228808 10.8032L-0.228415 10.8027ZM32.1198 4.71705L36.8417 10.3836H3.15786L7.87981 4.71705H32.1198Z" fill="url(#paint0_linear_617_5896)" stroke="url(#paint1_linear_617_5896)" stroke-width="0.999986"/>
<path d="M12.0006 12.7169C12.1539 12.7169 12.3058 12.6868 12.4475 12.6282C12.5892 12.5696 12.7179 12.4836 12.8264 12.3752L12.8264 12.3751L20.8262 4.37533C20.8263 4.37529 20.8263 4.37525 20.8263 4.37521C20.9895 4.21208 21.1007 4.0042 21.1457 3.77788L20.6553 3.68029L21.1457 3.77788C21.1908 3.55151 21.1677 3.31687 21.0793 3.10364L21.0792 3.10347C20.9908 2.89037 20.8413 2.70826 20.6494 2.58015C20.4576 2.45206 20.2321 2.3837 20.0014 2.38372C20.0014 2.38372 20.0013 2.38372 20.0013 2.38372H7.33492C6.91697 2.38372 6.5319 2.60697 6.32357 2.96905C6.11508 3.33142 6.11598 3.77663 6.3271 4.13829C6.32712 4.13832 6.32714 4.13835 6.32716 4.13838C6.32719 4.13843 6.32722 4.13849 6.32725 4.13854L10.9937 12.1382L10.9937 12.1383C11.0836 12.2923 11.2076 12.4237 11.3562 12.5223L11.6328 12.1058L11.3562 12.5224C11.5048 12.621 11.674 12.6843 11.8509 12.7073L11.8509 12.7074L11.8574 12.7082C11.9016 12.7133 11.9499 12.7168 12.0006 12.7169ZM12.0006 12.7169L12.0009 12.2169V12.7169C12.0008 12.7169 12.0007 12.7169 12.0006 12.7169ZM17.1843 4.71705L12.246 9.65541L9.36538 4.71705H17.1843Z" fill="url(#paint2_linear_617_5896)" stroke="url(#paint3_linear_617_5896)" stroke-width="0.999986"/>
<path d="M40.3781 11.033L40.378 11.0329C40.2817 10.8378 40.1328 10.6735 39.948 10.5587C39.7632 10.4438 39.55 10.3829 39.3324 10.3829L0.666237 10.3829L0.665888 10.3829C0.448435 10.3831 0.235349 10.444 0.0506685 10.5588C-0.134013 10.6736 -0.282938 10.8377 -0.379309 11.0326L-0.379439 11.0329C-0.475681 11.2279 -0.515543 11.4458 -0.49453 11.6622C-0.473523 11.8786 -0.392502 12.0848 -0.260601 12.2575C-0.260573 12.2576 -0.260545 12.2576 -0.260517 12.2577L19.0723 37.5903C19.0724 37.5904 19.0724 37.5905 19.0725 37.5906C19.2928 37.8795 19.6356 38.0499 20 38.0499C20.3633 38.0499 20.707 37.8802 20.9267 37.5897C20.9271 37.5893 20.9274 37.5888 20.9278 37.5883L40.2592 12.2575C40.3911 12.0848 40.4721 11.8786 40.4931 11.6622C40.5141 11.4459 40.4743 11.2279 40.3781 11.033ZM36.9752 12.7169L20 34.9604L3.02472 12.7169H36.9752Z" fill="url(#paint4_linear_617_5896)" stroke="url(#paint5_linear_617_5896)" stroke-width="0.999986"/>
<path d="M21.1121 36.5314L21.1122 36.5316C21.1947 36.7934 21.1823 37.0759 21.077 37.3295C20.9721 37.5822 20.7817 37.79 20.5392 37.9165C20.3726 38.0046 20.1869 38.0505 19.9984 38.0499M21.1121 36.5314L20 37.5499M21.1121 36.5314L13.1122 11.1983L13.1122 11.1982C13.0374 10.9617 12.8893 10.7552 12.6892 10.6086C12.4891 10.4619 12.2475 10.3829 11.9994 10.3829H0.666237L0.665887 10.3829C0.448434 10.3831 0.235349 10.444 0.0506702 10.5588L0.0506674 10.5588C-0.134012 10.6736 -0.282937 10.8377 -0.379309 11.0326L-0.379439 11.0329C-0.47568 11.2279 -0.515543 11.4458 -0.49453 11.6622C-0.473518 11.8786 -0.392468 12.0849 -0.260517 12.2577L19.072 37.5898M21.1121 36.5314L19.072 37.5898M19.9984 38.0499L20 37.5499M19.9984 38.0499C19.999 38.0499 19.9996 38.0499 20.0002 38.0499L20 37.5499M19.9984 38.0499C19.8193 38.0497 19.6426 38.0082 19.4821 37.9287C19.3214 37.849 19.1812 37.7333 19.0725 37.5906M20 37.5499C19.8973 37.5499 19.7961 37.5262 19.7042 37.4807C19.6122 37.4351 19.5321 37.3689 19.47 37.2872L19.0725 37.5906M19.0725 37.5906L19.072 37.5898M19.0725 37.5906L19.072 37.5898M28.1421 12.7084L28.1421 12.7083C28.0994 12.7132 28.0513 12.7169 27.9992 12.7169M28.1421 12.7084L27.9992 12.7169M28.1421 12.7084L28.1496 12.7074M28.1421 12.7084L28.1496 12.7074M27.9992 12.7169C27.846 12.717 27.6942 12.6868 27.5527 12.6282C27.411 12.5695 27.2824 12.4834 27.1741 12.3749C27.174 12.3748 27.1739 12.3747 27.1738 12.3745L19.1747 4.37547M27.9992 12.7169L19.1747 4.37547M28.1496 12.7074C28.3266 12.6844 28.4959 12.6211 28.6446 12.5224C28.7932 12.4238 28.9173 12.2923 29.0071 12.1382C29.0071 12.1381 29.0072 12.1381 29.0072 12.138L33.6737 4.13829L33.6741 4.13766M28.1496 12.7074L33.6741 4.13766M33.6741 4.13766C33.7771 3.96043 33.8317 3.75919 33.8323 3.55418C33.8329 3.34915 33.7796 3.14758 33.6776 2.96971C33.5755 2.79155 33.4281 2.64353 33.2504 2.54064M33.6741 4.13766L33.2504 2.54064M33.2504 2.54064C33.0728 2.43777 32.8712 2.38364 32.6659 2.38372M33.2504 2.54064L32.6659 2.38372M32.6659 2.38372C32.6658 2.38372 32.6658 2.38372 32.6658 2.38372M32.6659 2.38372H32.6658M32.6658 2.38372H19.9995H32.6658ZM19.3512 2.58008C19.5431 2.45196 19.7686 2.38363 19.9993 2.38372L19.3512 2.58008ZM19.3512 2.58008C19.1592 2.70826 19.0096 2.89052 18.9213 3.10378M19.3512 2.58008L18.9213 3.10378M18.9213 3.10378C18.8329 3.31704 18.8099 3.55172 18.855 3.77809M18.9213 3.10378L18.855 3.77809M18.855 3.77809C18.9001 4.00447 19.0114 4.21237 19.1747 4.37547M18.855 3.77809L19.1747 4.37547M16.8763 30.8681L3.0241 12.7169H11.1443L16.8763 30.8681ZM30.6346 4.71705L27.7541 9.65541L22.8157 4.71705H30.6346Z" fill="url(#paint6_linear_617_5896)" stroke="url(#paint7_linear_617_5896)" stroke-width="0.999986"/>
<path d="M40.3795 11.0344L40.3795 11.0343C40.2832 10.8392 40.1342 10.6749 39.9494 10.5601C39.7647 10.4452 39.5514 10.3843 39.3338 10.3843H28.0007C28.0007 10.3843 28.0007 10.3843 28.0006 10.3843C27.7525 10.3842 27.5109 10.4632 27.3108 10.6098C27.1106 10.7565 26.9625 10.9631 26.8878 11.1998C26.8878 11.1998 26.8878 11.1999 26.8877 11.2L18.8879 36.5328L18.8877 36.5333C18.8054 36.795 18.818 37.0774 18.9231 37.3308C19.0283 37.5842 19.2193 37.7924 19.4628 37.919L19.4629 37.9191C19.629 38.0053 19.8135 38.0503 20.0006 38.05C20.1796 38.0498 20.356 38.0085 20.5165 37.9294C20.677 37.8503 20.8171 37.7354 20.9263 37.5936L20.9275 37.592L40.2605 12.2591C40.3924 12.0863 40.4735 11.8801 40.4945 11.6637C40.5156 11.4473 40.4757 11.2294 40.3795 11.0344ZM28.8551 12.7169H36.9753L23.1232 30.868L28.8551 12.7169Z" fill="url(#paint8_linear_617_5896)" stroke="url(#paint9_linear_617_5896)" stroke-width="0.999986"/>
</g>
<defs>
<linearGradient id="paint0_linear_617_5896" x1="39.9999" y1="8.49621" x2="-1.33321e-05" y2="8.59351" gradientUnits="userSpaceOnUse">
<stop stop-color="#005CFF"/>
<stop offset="1" stop-color="#EAD1FF"/>
</linearGradient>
<linearGradient id="paint1_linear_617_5896" x1="39.9999" y1="8.49621" x2="-1.33321e-05" y2="8.59351" gradientUnits="userSpaceOnUse">
<stop stop-color="#005CFF"/>
<stop offset="1" stop-color="#EAD1FF"/>
</linearGradient>
<linearGradient id="paint2_linear_617_5896" x1="20.6682" y1="8.49594" x2="6.66789" y2="8.50785" gradientUnits="userSpaceOnUse">
<stop stop-color="#005CFF"/>
<stop offset="1" stop-color="#EAD1FF"/>
</linearGradient>
<linearGradient id="paint3_linear_617_5896" x1="20.6682" y1="8.49594" x2="6.66789" y2="8.50785" gradientUnits="userSpaceOnUse">
<stop stop-color="#005CFF"/>
<stop offset="1" stop-color="#EAD1FF"/>
</linearGradient>
<linearGradient id="paint4_linear_617_5896" x1="39.9985" y1="26.9183" x2="-0.000220995" y2="26.9524" gradientUnits="userSpaceOnUse">
<stop stop-color="#005CFF"/>
<stop offset="1" stop-color="#EAD1FF"/>
</linearGradient>
<linearGradient id="paint5_linear_617_5896" x1="39.9985" y1="26.9183" x2="-0.000220995" y2="26.9524" gradientUnits="userSpaceOnUse">
<stop stop-color="#005CFF"/>
<stop offset="1" stop-color="#EAD1FF"/>
</linearGradient>
<linearGradient id="paint6_linear_617_5896" x1="33.3323" y1="23.7292" x2="-0.00019839" y2="23.7474" gradientUnits="userSpaceOnUse">
<stop stop-color="#005CFF"/>
<stop offset="1" stop-color="#EAD1FF"/>
</linearGradient>
<linearGradient id="paint7_linear_617_5896" x1="33.3323" y1="23.7292" x2="-0.00019839" y2="23.7474" gradientUnits="userSpaceOnUse">
<stop stop-color="#005CFF"/>
<stop offset="1" stop-color="#EAD1FF"/>
</linearGradient>
<linearGradient id="paint8_linear_617_5896" x1="40" y1="26.919" x2="19.3339" y2="26.9281" gradientUnits="userSpaceOnUse">
<stop stop-color="#005CFF"/>
<stop offset="1" stop-color="#EAD1FF"/>
</linearGradient>
<linearGradient id="paint9_linear_617_5896" x1="40" y1="26.919" x2="19.3339" y2="26.9281" gradientUnits="userSpaceOnUse">
<stop stop-color="#005CFF"/>
<stop offset="1" stop-color="#EAD1FF"/>
</linearGradient>
<clipPath id="clip0_617_5896">
<rect width="40" height="40" fill="white" transform="translate(0 0.216797)"/>
</clipPath>
</defs>
</svg>
