<svg width="24" height="25" viewBox="0 0 24 25" fill="none" xmlns="http://www.w3.org/2000/svg">
<path d="M20.25 8.7672C21.134 9.0512 21.75 9.8952 21.75 10.8642V15.1502C21.75 16.2862 20.903 17.2502 19.77 17.3432C19.43 17.3702 19.09 17.3952 18.75 17.4152V20.5062L15.75 17.5062C14.396 17.5062 13.056 17.4512 11.73 17.3432C11.4413 17.3199 11.1605 17.2375 10.905 17.1012M20.25 8.7672C20.0955 8.71746 19.9358 8.68559 19.774 8.6722C17.0959 8.44988 14.4041 8.44988 11.726 8.6722C10.595 8.7662 9.75 9.7292 9.75 10.8642V15.1502C9.75 15.9872 10.21 16.7302 10.905 17.1012M20.25 8.7672V6.8932C20.25 5.2722 19.098 3.8672 17.49 3.6582C15.4208 3.38999 13.3365 3.25571 11.25 3.2562C9.135 3.2562 7.052 3.3932 5.01 3.6582C3.402 3.8672 2.25 5.2722 2.25 6.8932V13.1192C2.25 14.7402 3.402 16.1452 5.01 16.3542C5.587 16.4292 6.167 16.4942 6.75 16.5482V21.2562L10.905 17.1012" stroke="black" stroke-width="1.5" stroke-linecap="round" stroke-linejoin="round"/>
</svg>
