<svg width="25" height="25" viewBox="0 0 25 25" fill="none" xmlns="http://www.w3.org/2000/svg">
<g clip-path="url(#clip0_727_1843)">
<path d="M12.5028 7.85449C11.8288 7.85438 11.1615 7.98704 10.5388 8.24489C9.91617 8.50275 9.35042 8.88074 8.87388 9.35728C8.39734 9.83382 8.01935 10.3996 7.7615 11.0222C7.50364 11.6449 7.37098 12.3122 7.37109 12.9862C7.37098 13.6601 7.50364 14.3274 7.7615 14.9501C8.01935 15.5727 8.39734 16.1385 8.87388 16.615C9.35042 17.0916 9.91617 17.4696 10.5388 17.7274C11.1615 17.9853 11.8288 18.1179 12.5028 18.1178C13.1767 18.1179 13.844 17.9853 14.4667 17.7274C15.0893 17.4696 15.6551 17.0916 16.1316 16.615C16.6082 16.1385 16.9862 15.5727 17.244 14.9501C17.5019 14.3274 17.6345 13.6601 17.6344 12.9862C17.6345 12.3122 17.5019 11.6449 17.244 11.0222C16.9862 10.3996 16.6082 9.83382 16.1316 9.35728C15.6551 8.88074 15.0893 8.50275 14.4667 8.24489C13.844 7.98704 13.1767 7.85438 12.5028 7.85449ZM12.5028 16.317C11.8442 16.3168 11.2005 16.1214 10.653 15.7554C10.1055 15.3895 9.67885 14.8694 9.42692 14.2609C9.17498 13.6525 9.1091 12.983 9.23762 12.3371C9.36613 11.6913 9.68327 11.098 10.1489 10.6323C10.6146 10.1667 11.2079 9.84953 11.8537 9.72102C12.4996 9.5925 13.1691 9.65838 13.7775 9.91031C14.386 10.1623 14.9061 10.5889 15.272 11.1364C15.638 11.6839 15.8334 12.3276 15.8336 12.9862C15.8338 13.4236 15.7478 13.8569 15.5805 14.2611C15.4132 14.6653 15.1678 15.0326 14.8585 15.3419C14.5492 15.6512 14.1819 15.8966 13.7777 16.0639C13.3735 16.2312 12.9402 16.3172 12.5028 16.317Z" fill="#98C1D9"/>
<path d="M16.6235 3.05306C14.7835 2.96722 10.226 2.97139 8.38436 3.05306C6.76602 3.12889 5.33852 3.51972 4.18769 4.67056C2.26436 6.59389 2.51019 9.18556 2.51019 12.9864C2.51019 16.8764 2.29352 19.4081 4.18769 21.3022C6.11852 23.2322 8.74769 22.9797 12.5035 22.9797C16.3569 22.9797 17.6869 22.9822 19.0494 22.4547C20.9019 21.7356 22.3002 20.0797 22.4369 17.1056C22.5235 15.2647 22.5185 10.7081 22.4369 8.86639C22.2719 5.35556 20.3877 3.22639 16.6235 3.05306ZM19.536 20.0297C18.2752 21.2906 16.526 21.1781 12.4794 21.1781C8.31269 21.1781 6.64186 21.2397 5.42269 20.0172C4.01852 18.6197 4.27269 16.3756 4.27269 12.9731C4.27269 8.36889 3.80019 5.05306 8.42102 4.81639C9.48269 4.77889 9.79519 4.76639 12.4677 4.76639L12.5052 4.79139C16.946 4.79139 20.4302 4.32639 20.6394 8.94639C20.6869 10.0006 20.6977 10.3172 20.6977 12.9856C20.6969 17.1039 20.7752 18.7847 19.536 20.0297Z" fill="#98C1D9"/>
<path d="M17.8378 8.85097C18.5001 8.85097 19.037 8.31408 19.037 7.6518C19.037 6.98952 18.5001 6.45264 17.8378 6.45264C17.1756 6.45264 16.6387 6.98952 16.6387 7.6518C16.6387 8.31408 17.1756 8.85097 17.8378 8.85097Z" fill="#98C1D9"/>
</g>
<defs>
<clipPath id="clip0_727_1843">
<rect width="20" height="20" fill="white" transform="translate(2.5 2.98975)"/>
</clipPath>
</defs>
</svg>
