<svg width="8" height="9" viewBox="0 0 8 9" fill="none" xmlns="http://www.w3.org/2000/svg">
<path d="M4 8.91602C5.06087 8.91602 6.07828 8.49459 6.82843 7.74444C7.57857 6.9943 8 5.97688 8 4.91602C8 3.85515 7.57857 2.83773 6.82843 2.08759C6.07828 1.33744 5.06087 0.916016 4 0.916016C2.93913 0.916016 1.92172 1.33744 1.17157 2.08759C0.421427 2.83773 0 3.85515 0 4.91602C0 5.97688 0.421427 6.9943 1.17157 7.74444C1.92172 8.49459 2.93913 8.91602 4 8.91602ZM3.375 6.16602H3.75V5.16602H3.375C3.16719 5.16602 3 4.99883 3 4.79102C3 4.5832 3.16719 4.41602 3.375 4.41602H4.125C4.33281 4.41602 4.5 4.5832 4.5 4.79102V6.16602H4.625C4.83281 6.16602 5 6.3332 5 6.54102C5 6.74883 4.83281 6.91602 4.625 6.91602H3.375C3.16719 6.91602 3 6.74883 3 6.54102C3 6.3332 3.16719 6.16602 3.375 6.16602ZM4 2.91602C4.13261 2.91602 4.25979 2.96869 4.35355 3.06246C4.44732 3.15623 4.5 3.28341 4.5 3.41602C4.5 3.54862 4.44732 3.6758 4.35355 3.76957C4.25979 3.86334 4.13261 3.91602 4 3.91602C3.86739 3.91602 3.74021 3.86334 3.64645 3.76957C3.55268 3.6758 3.5 3.54862 3.5 3.41602C3.5 3.28341 3.55268 3.15623 3.64645 3.06246C3.74021 2.96869 3.86739 2.91602 4 2.91602Z" fill="#363A45"/>
</svg>
