<svg width="33" height="33" viewBox="0 0 33 33" fill="none" xmlns="http://www.w3.org/2000/svg">
<g clip-path="url(#clip0_595_929)">
<mask id="path-2-inside-1_595_929" fill="white">
<path d="M16.5028 11.1484C15.8288 11.1483 15.1615 11.281 14.5388 11.5388C13.9162 11.7967 13.3504 12.1747 12.8739 12.6512C12.3973 13.1278 12.0193 13.6935 11.7615 14.3162C11.5036 14.9388 11.371 15.6062 11.3711 16.2801C11.371 16.954 11.5036 17.6214 11.7615 18.244C12.0193 18.8667 12.3973 19.4324 12.8739 19.909C13.3504 20.3855 13.9162 20.7635 14.5388 21.0214C15.1615 21.2792 15.8288 21.4119 16.5028 21.4118C17.1767 21.4119 17.844 21.2792 18.4667 21.0214C19.0893 20.7635 19.6551 20.3855 20.1316 19.909C20.6082 19.4324 20.9862 18.8667 21.244 18.244C21.5019 17.6214 21.6345 16.954 21.6344 16.2801C21.6345 15.6062 21.5019 14.9388 21.244 14.3162C20.9862 13.6935 20.6082 13.1278 20.1316 12.6512C19.6551 12.1747 19.0893 11.7967 18.4667 11.5388C17.844 11.281 17.1767 11.1483 16.5028 11.1484ZM16.5028 19.6109C15.8442 19.6108 15.2005 19.4154 14.653 19.0494C14.1055 18.6834 13.6789 18.1633 13.4269 17.5549C13.175 16.9464 13.1091 16.277 13.2376 15.6311C13.3661 14.9852 13.6833 14.3919 14.1489 13.9263C14.6146 13.4606 15.2079 13.1435 15.8537 13.015C16.4996 12.8864 17.1691 12.9523 17.7775 13.2043C18.386 13.4562 18.9061 13.8829 19.272 14.4304C19.638 14.9779 19.8334 15.6216 19.8336 16.2801C19.8338 16.7176 19.7478 17.1508 19.5805 17.555C19.4132 17.9592 19.1678 18.3265 18.8585 18.6358C18.5492 18.9452 18.1819 19.1905 17.7777 19.3578C17.3735 19.5252 16.9402 19.6112 16.5028 19.6109Z"/>
</mask>
<path d="M16.5028 11.1484C15.8288 11.1483 15.1615 11.281 14.5388 11.5388C13.9162 11.7967 13.3504 12.1747 12.8739 12.6512C12.3973 13.1278 12.0193 13.6935 11.7615 14.3162C11.5036 14.9388 11.371 15.6062 11.3711 16.2801C11.371 16.954 11.5036 17.6214 11.7615 18.244C12.0193 18.8667 12.3973 19.4324 12.8739 19.909C13.3504 20.3855 13.9162 20.7635 14.5388 21.0214C15.1615 21.2792 15.8288 21.4119 16.5028 21.4118C17.1767 21.4119 17.844 21.2792 18.4667 21.0214C19.0893 20.7635 19.6551 20.3855 20.1316 19.909C20.6082 19.4324 20.9862 18.8667 21.244 18.244C21.5019 17.6214 21.6345 16.954 21.6344 16.2801C21.6345 15.6062 21.5019 14.9388 21.244 14.3162C20.9862 13.6935 20.6082 13.1278 20.1316 12.6512C19.6551 12.1747 19.0893 11.7967 18.4667 11.5388C17.844 11.281 17.1767 11.1483 16.5028 11.1484ZM16.5028 19.6109C15.8442 19.6108 15.2005 19.4154 14.653 19.0494C14.1055 18.6834 13.6789 18.1633 13.4269 17.5549C13.175 16.9464 13.1091 16.277 13.2376 15.6311C13.3661 14.9852 13.6833 14.3919 14.1489 13.9263C14.6146 13.4606 15.2079 13.1435 15.8537 13.015C16.4996 12.8864 17.1691 12.9523 17.7775 13.2043C18.386 13.4562 18.9061 13.8829 19.272 14.4304C19.638 14.9779 19.8334 15.6216 19.8336 16.2801C19.8338 16.7176 19.7478 17.1508 19.5805 17.555C19.4132 17.9592 19.1678 18.3265 18.8585 18.6358C18.5492 18.9452 18.1819 19.1905 17.7777 19.3578C17.3735 19.5252 16.9402 19.6112 16.5028 19.6109Z" fill="#98C1D9"/>
<path d="M16.5028 11.1484L16.4993 32.4818H16.5062L16.5028 11.1484ZM11.3711 16.2801L32.7044 16.2836V16.2766L11.3711 16.2801ZM16.5028 21.4118L16.5062 0.0784359L16.4993 0.0784369L16.5028 21.4118ZM21.6344 16.2801L0.301093 16.2766L0.301095 16.2836L21.6344 16.2801ZM16.5028 19.6109L16.5134 -1.72239L16.5081 -1.7224L16.5028 19.6109ZM19.8336 16.2801L-1.49974 16.2854L-1.49974 16.2908L19.8336 16.2801ZM16.5062 -10.1849C13.0302 -10.1855 9.58807 -9.50122 6.37651 -8.17126L22.7011 31.2489C20.7349 32.0632 18.6275 32.4821 16.4993 32.4818L16.5062 -10.1849ZM6.37651 -8.17126C3.16495 -6.84129 0.246868 -4.89165 -2.21106 -2.43372L27.9588 27.7362C26.454 29.241 24.6674 30.4347 22.7011 31.2489L6.37651 -8.17126ZM-2.21106 -2.43372C-4.669 0.0242138 -6.61863 2.9423 -7.9486 6.15386L31.4716 22.4785C30.6573 24.4447 29.4637 26.2313 27.9588 27.7362L-2.21106 -2.43372ZM-7.9486 6.15386C-9.27856 9.36542 -9.9628 12.8075 -9.96224 16.2836L32.7044 16.2766C32.7048 18.4048 32.2859 20.5122 31.4716 22.4785L-7.9486 6.15386ZM-9.96224 16.2766C-9.9628 19.7527 -9.27856 23.1948 -7.9486 26.4064L31.4716 10.0817C32.2859 12.048 32.7048 14.1554 32.7044 16.2836L-9.96224 16.2766ZM-7.9486 26.4064C-6.61863 29.6179 -4.669 32.536 -2.21106 34.9939L27.9588 4.82404C29.4637 6.32889 30.6573 8.11547 31.4716 10.0817L-7.9486 26.4064ZM-2.21106 34.9939C0.246863 37.4519 3.16495 39.4015 6.37651 40.7315L22.7011 1.31128C24.6674 2.12554 26.454 3.31919 27.9588 4.82404L-2.21106 34.9939ZM6.37651 40.7315C9.58809 42.0614 13.0302 42.7457 16.5062 42.7451L16.4993 0.0784369C18.6275 0.0780916 20.7349 0.497006 22.7011 1.31128L6.37651 40.7315ZM16.4993 42.7451C19.9753 42.7457 23.4174 42.0614 26.629 40.7315L10.3044 1.31128C12.2707 0.497005 14.3781 0.0780916 16.5062 0.0784369L16.4993 42.7451ZM26.629 40.7315C29.8406 39.4015 32.7587 37.4519 35.2166 34.9939L5.0467 4.82404C6.55154 3.31919 8.33812 2.12554 10.3044 1.31128L26.629 40.7315ZM35.2166 34.9939C37.6745 32.536 39.6241 29.6179 40.9541 26.4064L1.53393 10.0817C2.3482 8.11546 3.54185 6.32889 5.0467 4.82404L35.2166 34.9939ZM40.9541 26.4064C42.2841 23.1948 42.9683 19.7527 42.9678 16.2766L0.301095 16.2836C0.300749 14.1554 0.719675 12.048 1.53393 10.0817L40.9541 26.4064ZM42.9678 16.2836C42.9683 12.8075 42.2841 9.3654 40.9541 6.15386L1.53393 22.4785C0.719675 20.5122 0.300749 18.4048 0.301095 16.2766L42.9678 16.2836ZM40.9541 6.15386C39.6242 2.94229 37.6745 0.024209 35.2166 -2.43372L5.0467 27.7362C3.54185 26.2313 2.3482 24.4447 1.53393 22.4785L40.9541 6.15386ZM35.2166 -2.43372C32.7587 -4.89165 29.8406 -6.84129 26.629 -8.17126L10.3044 31.2489C8.33812 30.4347 6.55155 29.241 5.0467 27.7362L35.2166 -2.43372ZM26.629 -8.17126C23.4175 -9.50122 19.9753 -10.1855 16.4993 -10.1849L16.5062 32.4818C14.378 32.4821 12.2706 32.0632 10.3044 31.2489L26.629 -8.17126ZM16.5081 -1.7224C20.0684 -1.7215 23.5486 -0.66498 26.5085 1.31359L2.79753 36.7852C6.85244 39.4957 11.62 40.9431 16.4974 40.9443L16.5081 -1.7224ZM26.5085 1.31359C29.4685 3.29216 31.7753 6.10394 33.1374 9.39344L-6.28354 25.7163C-4.41759 30.2227 -1.25739 34.0747 2.79753 36.7852L26.5085 1.31359ZM33.1374 9.39344C34.4994 12.6829 34.8556 16.3024 34.1608 19.7943L-7.68554 11.4678C-8.63738 16.2515 -8.14948 21.21 -6.28354 25.7163L33.1374 9.39344ZM34.1608 19.7943C33.466 23.2862 31.7514 26.4937 29.2339 29.0112L-0.936016 -1.15867C-4.38487 2.29018 -6.7337 6.6842 -7.68554 11.4678L34.1608 19.7943ZM29.2339 29.0112C26.7163 31.5288 23.5088 33.2433 20.017 33.9381L11.6905 -7.9082C6.90687 -6.95636 2.51285 -4.60754 -0.936016 -1.15867L29.2339 29.0112ZM20.017 33.9381C16.5251 34.6329 12.9056 34.2768 9.6161 32.9147L25.939 -6.50619C21.4326 -8.37214 16.4741 -8.86003 11.6905 -7.9082L20.017 33.9381ZM9.6161 32.9147C6.32661 31.5526 3.51483 29.2458 1.53625 26.2859L37.0078 2.57487C34.2973 -1.48005 30.4454 -4.64025 25.939 -6.50619L9.6161 32.9147ZM1.53625 26.2859C-0.442335 23.3259 -1.49885 19.8458 -1.49974 16.2854L41.1669 16.2748C41.1657 11.3974 39.7184 6.62981 37.0078 2.57487L1.53625 26.2859ZM-1.49974 16.2908C-1.50092 13.9249 -1.03581 11.582 -0.130978 9.39604L39.292 25.714C40.5314 22.7196 41.1685 19.5102 41.1669 16.2694L-1.49974 16.2908ZM-0.130978 9.39604C0.773844 7.21006 2.10063 5.22383 3.77356 3.5509L33.9434 33.7208C36.2351 31.4292 38.0525 28.7084 39.292 25.714L-0.130978 9.39604ZM3.77356 3.5509C5.4465 1.87797 7.43273 0.551181 9.6187 -0.353635L25.9367 39.0693C28.931 37.8299 31.6518 36.0124 33.9434 33.7208L3.77356 3.5509ZM9.6187 -0.353635C11.8047 -1.25846 14.1476 -1.72358 16.5134 -1.72239L16.4921 40.9443C19.7329 40.9459 22.9422 40.3088 25.9367 39.0693L9.6187 -0.353635Z" fill="#98C1D9" mask="url(#path-2-inside-1_595_929)"/>
<path d="M20.6235 6.34676C18.7835 6.26092 14.226 6.26509 12.3844 6.34676C10.766 6.42259 9.33852 6.81342 8.18769 7.96426C6.26436 9.88759 6.51019 12.4793 6.51019 16.2801C6.51019 20.1701 6.29352 22.7018 8.18769 24.5959C10.1185 26.5259 12.7477 26.2734 16.5035 26.2734C20.3569 26.2734 21.6869 26.2759 23.0494 25.7484C24.9019 25.0293 26.3002 23.3734 26.4369 20.3993C26.5235 18.5584 26.5185 14.0018 26.4369 12.1601C26.2719 8.64926 24.3877 6.52009 20.6235 6.34676ZM23.536 23.3234C22.2752 24.5843 20.526 24.4718 16.4794 24.4718C12.3127 24.4718 10.6419 24.5334 9.42269 23.3109C8.01852 21.9134 8.27269 19.6693 8.27269 16.2668C8.27269 11.6626 7.80019 8.34676 12.421 8.11009C13.4827 8.07259 13.7952 8.06009 16.4677 8.06009L16.5052 8.08509C20.946 8.08509 24.4302 7.62009 24.6394 12.2401C24.6869 13.2943 24.6977 13.6109 24.6977 16.2793C24.6969 20.3976 24.7752 22.0784 23.536 23.3234Z" fill="#98C1D9"/>
<path d="M21.8378 12.1449C22.5001 12.1449 23.037 11.608 23.037 10.9457C23.037 10.2835 22.5001 9.74658 21.8378 9.74658C21.1756 9.74658 20.6387 10.2835 20.6387 10.9457C20.6387 11.608 21.1756 12.1449 21.8378 12.1449Z" fill="#98C1D9"/>
</g>
<defs>
<clipPath id="clip0_595_929">
<rect width="20" height="20" fill="white" transform="translate(6.5 6.2832)"/>
</clipPath>
</defs>
</svg>
