<svg width="9" height="9" viewBox="0 0 9 9" fill="none" xmlns="http://www.w3.org/2000/svg">
<g clip-path="url(#clip0_727_974)">
<path d="M6 0.568359C5.79844 0.568359 5.61562 0.690234 5.5375 0.877734C5.45937 1.06523 5.50312 1.2793 5.64531 1.42305L6.29219 2.06836L3.64687 4.71523C3.45156 4.91055 3.45156 5.22773 3.64687 5.42305C3.84219 5.61836 4.15937 5.61836 4.35469 5.42305L7 2.77617L7.64687 3.42305C7.79063 3.5668 8.00469 3.60898 8.19219 3.53086C8.37969 3.45273 8.50156 3.27148 8.50156 3.06836V1.06836C8.50156 0.791797 8.27813 0.568359 8.00156 0.568359H6ZM1.75 1.06836C1.05937 1.06836 0.5 1.62773 0.5 2.31836V7.31836C0.5 8.00898 1.05937 8.56836 1.75 8.56836H6.75C7.44063 8.56836 8 8.00898 8 7.31836V5.56836C8 5.2918 7.77656 5.06836 7.5 5.06836C7.22344 5.06836 7 5.2918 7 5.56836V7.31836C7 7.45586 6.8875 7.56836 6.75 7.56836H1.75C1.6125 7.56836 1.5 7.45586 1.5 7.31836V2.31836C1.5 2.18086 1.6125 2.06836 1.75 2.06836H3.5C3.77656 2.06836 4 1.84492 4 1.56836C4 1.2918 3.77656 1.06836 3.5 1.06836H1.75Z" fill="#363A45"/>
</g>
<defs>
<clipPath id="clip0_727_974">
<rect width="8" height="8" fill="white" transform="translate(0.5 0.568359)"/>
</clipPath>
</defs>
</svg>
