<svg width="25" height="25" viewBox="0 0 25 25" fill="none" xmlns="http://www.w3.org/2000/svg">
<path d="M22.1004 22.5896V15.5576C22.1004 12.1016 21.3564 9.46165 17.3244 9.46165C15.3804 9.46165 14.0844 10.5176 13.5564 11.5256H13.5084V9.77365H9.69239V22.5896H13.6764V16.2296C13.6764 14.5496 13.9884 12.9416 16.0524 12.9416C18.0924 12.9416 18.1164 14.8376 18.1164 16.3256V22.5656H22.1004V22.5896ZM3.21239 9.77365H7.19639V22.5896H3.21239V9.77365ZM5.20439 3.38965C3.93239 3.38965 2.90039 4.42165 2.90039 5.69365C2.90039 6.96565 3.93239 8.02165 5.20439 8.02165C6.47639 8.02165 7.50839 6.96565 7.50839 5.69365C7.50839 4.42165 6.47639 3.38965 5.20439 3.38965Z" fill="#98C1D9"/>
</svg>
