<svg width="25" height="25" viewBox="0 0 25 25" fill="none" xmlns="http://www.w3.org/2000/svg">
<path d="M22.1004 21.8831V14.8511C22.1004 11.3951 21.3564 8.7551 17.3244 8.7551C15.3804 8.7551 14.0844 9.81111 13.5564 10.8191H13.5084V9.0671H9.69239V21.8831H13.6764V15.5231C13.6764 13.8431 13.9884 12.2351 16.0524 12.2351C18.0924 12.2351 18.1164 14.1311 18.1164 15.6191V21.8591H22.1004V21.8831ZM3.21239 9.0671H7.19639V21.8831H3.21239V9.0671ZM5.20439 2.68311C3.93239 2.68311 2.90039 3.71511 2.90039 4.98711C2.90039 6.25911 3.93239 7.3151 5.20439 7.3151C6.47639 7.3151 7.50839 6.25911 7.50839 4.98711C7.50839 3.71511 6.47639 2.68311 5.20439 2.68311Z" fill="#98C1D9"/>
</svg>
