<svg width="16" height="20" viewBox="0 0 16 20" fill="none" xmlns="http://www.w3.org/2000/svg">
<g clip-path="url(#clip0_727_1012)">
<path d="M5.14286 6.05887V7.77316H10.8571V6.05887C10.8571 4.4803 9.57857 3.20173 8 3.20173C6.42143 3.20173 5.14286 4.4803 5.14286 6.05887ZM2.85714 7.77316V6.05887C2.85714 3.21959 5.16071 0.916016 8 0.916016C10.8393 0.916016 13.1429 3.21959 13.1429 6.05887V7.77316H13.7143C14.975 7.77316 16 8.79816 16 10.0589V16.916C16 18.1767 14.975 19.2017 13.7143 19.2017H2.28571C1.025 19.2017 0 18.1767 0 16.916V10.0589C0 8.79816 1.025 7.77316 2.28571 7.77316H2.85714Z" fill="#555C6C"/>
</g>
<defs>
<clipPath id="clip0_727_1012">
<rect width="16" height="18.2857" fill="white" transform="translate(0 0.916016)"/>
</clipPath>
</defs>
</svg>
