<svg width="181" height="25" viewBox="0 0 181 25" fill="none" xmlns="http://www.w3.org/2000/svg">
<path fill-rule="evenodd" clip-rule="evenodd" d="M0.763672 23.5174V2.04578H10.5128C13.8621 2.04578 15.5368 3.78841 15.5368 7.27366V9.14076C15.5368 9.84611 15.3374 10.4477 14.9387 10.9456L13.892 12.2526L15.148 13.3417C15.806 13.9019 16.1349 14.7317 16.1349 15.8312V18.2895C16.1349 21.7748 14.4602 23.5174 11.1109 23.5174H0.763672ZM5.07001 19.472H10.9314C11.5295 19.472 11.8286 19.1609 11.8286 18.5385V15.4267C11.8286 14.8043 11.5295 14.4931 10.9314 14.4931H5.07001V19.472ZM5.07001 10.4477H10.3333C10.9314 10.4477 11.2305 10.1365 11.2305 9.51418V7.02471C11.2305 6.40235 10.9314 6.09117 10.3333 6.09117H5.07001V10.4477Z" fill="black"/>
<path d="M19.8534 17.5427V0.489868H23.9803V17.9784C23.9803 19.2646 24.6183 19.9803 25.8943 20.1255V23.8286C21.867 23.8286 19.8534 21.7333 19.8534 17.5427Z" fill="black"/>
<path d="M29.1112 18.4763V7.08695H33.2381V18.7874C33.2381 19.4513 33.5571 19.7832 34.1951 19.7832H38.5612V7.08695H42.6881V23.5174H33.9558C30.7261 23.5174 29.1112 21.837 29.1112 18.4763Z" fill="black"/>
<path fill-rule="evenodd" clip-rule="evenodd" d="M46.7477 18.4763V12.1281C46.7477 8.76734 48.3626 7.08695 51.5924 7.08695H55.48C58.7098 7.08695 60.3247 8.76734 60.3247 12.1281V16.8892H50.8746V18.7874C50.8746 19.4513 51.1936 19.7832 51.8316 19.7832H59.7266V22.1171L57.9323 23.5174H51.5924C48.3626 23.5174 46.7477 21.837 46.7477 18.4763ZM50.8746 13.5907H56.1978V11.8169C56.1978 11.1531 55.8788 10.8211 55.2408 10.8211H51.8316C51.1936 10.8211 50.8746 11.1531 50.8746 11.8169V13.5907Z" fill="black"/>
<path d="M64.6918 23.5174V2.04578H69.8354L75.637 14.9288L81.4386 2.04578H86.5823V23.5174H82.276V9.94984L77.4314 20.7168H73.8427L68.9981 9.94984V23.5174H64.6918Z" fill="black"/>
<path fill-rule="evenodd" clip-rule="evenodd" d="M104.849 1.15113C98.655 1.15113 93.6341 6.37569 93.6341 12.8205C93.6341 19.2653 98.655 24.4899 104.849 24.4899H124.474C130.667 24.4899 135.688 19.2653 135.688 12.8205C135.688 6.37569 130.667 1.15113 124.474 1.15113H104.849ZM104.849 20.1139C108.719 20.1139 111.858 16.8485 111.858 12.8205C111.858 8.79249 108.719 5.52715 104.849 5.52715C100.978 5.52715 97.8395 8.79249 97.8395 12.8205C97.8395 16.8485 100.978 20.1139 104.849 20.1139Z" fill="black"/>
<path d="M141.879 2.04578V23.5174H146.185V9.42082L154.379 23.5174H159.044V2.04578H154.738V16.1424L146.544 2.04578H141.879Z" fill="black"/>
<path d="M163.957 2.04578V23.5174H168.263V16.5158L170.387 14.1197L176.398 23.5174H180.375L180.764 22.615L173.168 10.8834L180.016 2.94822L179.597 2.04578H175.56L168.263 10.5411V2.04578H163.957Z" fill="black"/>
</svg>
