<svg width="33" height="36" viewBox="0 0 33 36" fill="none" xmlns="http://www.w3.org/2000/svg">
<rect x="0.5" y="0.783203" width="32" height="35" rx="12" fill="#EE6C4D"/>
<path d="M23.5 14.5V21.5C23.5 21.8978 23.342 22.2794 23.0607 22.5607C22.7794 22.842 22.3978 23 22 23H12C11.6022 23 11.2206 22.842 10.9393 22.5607C10.658 22.2794 10.5 21.8978 10.5 21.5V14.5M23.5 14.5C23.5 14.1022 23.342 13.7206 23.0607 13.4393C22.7794 13.158 22.3978 13 22 13H12C11.6022 13 11.2206 13.158 10.9393 13.4393C10.658 13.7206 10.5 14.1022 10.5 14.5M23.5 14.5V14.662C23.5 14.9181 23.4345 15.1699 23.3096 15.3935C23.1848 15.6171 23.0047 15.805 22.7867 15.9393L17.7867 19.016C17.5501 19.1617 17.2778 19.2388 17 19.2388C16.7222 19.2388 16.4499 19.1617 16.2133 19.016L11.2133 15.94C10.9953 15.8057 10.8152 15.6178 10.6904 15.3942C10.5655 15.1706 10.5 14.9188 10.5 14.6627V14.5" stroke="white" stroke-width="1.5" stroke-linecap="round" stroke-linejoin="round"/>
</svg>
