<svg width="16" height="20" viewBox="0 0 16 20" fill="none" xmlns="http://www.w3.org/2000/svg">
<g clip-path="url(#clip0_727_1087)">
<path d="M6.28655 0.916016C5.65441 0.916016 5.14369 1.42673 5.14369 2.05887C5.14369 2.69102 5.65441 3.20173 6.28655 3.20173H6.85798V4.4303C3.29727 4.9803 0.572266 8.05887 0.572266 11.7732C0.572266 15.8767 3.89727 19.2017 8.00084 19.2017C12.1044 19.2017 15.4294 15.8767 15.4294 11.7732C15.4294 10.2803 14.9901 8.89102 14.233 7.7303L15.0937 6.86959C15.5401 6.42316 15.5401 5.69816 15.0937 5.25173C14.6473 4.8053 13.9223 4.8053 13.4758 5.25173L12.7044 6.02316C11.7008 5.20173 10.483 4.63744 9.14369 4.4303V3.20173H9.71512C10.3473 3.20173 10.858 2.69102 10.858 2.05887C10.858 1.42673 10.3473 0.916016 9.71512 0.916016H8.00084H6.28655ZM8.85798 7.77316V12.3446C8.85798 12.8196 8.47584 13.2017 8.00084 13.2017C7.52584 13.2017 7.14369 12.8196 7.14369 12.3446V7.77316C7.14369 7.29816 7.52584 6.91602 8.00084 6.91602C8.47584 6.91602 8.85798 7.29816 8.85798 7.77316Z" fill="black"/>
</g>
<defs>
<clipPath id="clip0_727_1087">
<rect width="16" height="18.2857" fill="white" transform="translate(0 0.916016)"/>
</clipPath>
</defs>
</svg>
