<svg width="16" height="17" viewBox="0 0 16 17" fill="none" xmlns="http://www.w3.org/2000/svg">
<g clip-path="url(#clip0_727_983)">
<path d="M14.7094 0.957812C14.8031 1.05469 14.875 1.16406 14.925 1.27969C14.975 1.39531 15 1.52344 15 1.66094V1.66406V4.66406C15 5.21719 14.5531 5.66406 14 5.66406C13.4469 5.66406 13 5.21719 13 4.66406V4.07969L9.70625 7.37031C9.3375 7.73906 8.74375 7.76406 8.34688 7.42344L5.5 4.97969L2.65 7.42344C2.23125 7.78281 1.6 7.73281 1.24063 7.31406C0.88125 6.89531 0.93125 6.26406 1.35 5.90469L4.85 2.90469C5.225 2.58281 5.77812 2.58281 6.15312 2.90469L8.95 5.30156L11.5844 2.66406H11C10.4469 2.66406 10 2.21719 10 1.66406C10 1.11094 10.4469 0.664062 11 0.664062H14C14.275 0.664062 14.525 0.776563 14.7063 0.954688L14.7094 0.957812ZM0 10.1641C0 9.33594 0.671875 8.66406 1.5 8.66406H14.5C15.3281 8.66406 16 9.33594 16 10.1641V15.1641C16 15.9922 15.3281 16.6641 14.5 16.6641H1.5C0.671875 16.6641 0 15.9922 0 15.1641V10.1641ZM1.5 13.6641V15.1641H3C3 14.3359 2.32812 13.6641 1.5 13.6641ZM3 10.1641H1.5V11.6641C2.32812 11.6641 3 10.9922 3 10.1641ZM14.5 13.6641C13.6719 13.6641 13 14.3359 13 15.1641H14.5V13.6641ZM13 10.1641C13 10.9922 13.6719 11.6641 14.5 11.6641V10.1641H13ZM10 12.6641C10 12.1336 9.78929 11.6249 9.41421 11.2498C9.03914 10.8748 8.53043 10.6641 8 10.6641C7.46957 10.6641 6.96086 10.8748 6.58579 11.2498C6.21071 11.6249 6 12.1336 6 12.6641C6 13.1945 6.21071 13.7032 6.58579 14.0783C6.96086 14.4533 7.46957 14.6641 8 14.6641C8.53043 14.6641 9.03914 14.4533 9.41421 14.0783C9.78929 13.7032 10 13.1945 10 12.6641Z" fill="black"/>
</g>
<defs>
<clipPath id="clip0_727_983">
<rect width="16" height="16" fill="white" transform="translate(0 0.748047)"/>
</clipPath>
</defs>
</svg>
