<svg width="16" height="17" viewBox="0 0 16 17" fill="none" xmlns="http://www.w3.org/2000/svg">
<path d="M15.645 7.20537L14.5569 5.94129C14.3489 5.70128 14.1809 5.25325 14.1809 4.93323V3.57315C14.1809 2.72509 13.4848 2.02905 12.6368 2.02905H11.2767C10.9647 2.02905 10.5087 1.86104 10.2686 1.65303L9.00456 0.564959C8.45253 0.0929302 7.54847 0.0929302 6.98843 0.564959L5.73236 1.66103C5.49234 1.86104 5.03631 2.02905 4.72429 2.02905H3.34021C2.49215 2.02905 1.79611 2.72509 1.79611 3.57315V4.94123C1.79611 5.25325 1.6281 5.70128 1.42809 5.94129L0.348022 7.21337C-0.116007 7.76541 -0.116007 8.66146 0.348022 9.2135L1.42809 10.4856C1.6281 10.7256 1.79611 11.1736 1.79611 11.4856V12.8537C1.79611 13.7018 2.49215 14.3978 3.34021 14.3978H4.72429C5.03631 14.3978 5.49234 14.5658 5.73236 14.7738L6.99643 15.8619C7.54847 16.3339 8.45253 16.3339 9.01256 15.8619L10.2766 14.7738C10.5167 14.5658 10.9647 14.3978 11.2847 14.3978H12.6448C13.4928 14.3978 14.1889 13.7018 14.1889 12.8537V11.4936C14.1889 11.1816 14.3569 10.7256 14.5649 10.4856L15.653 9.2215C16.117 8.66946 16.117 7.75741 15.645 7.20537ZM11.3247 6.70134L7.46046 10.5656C7.34796 10.6779 7.19545 10.7411 7.03644 10.7411C6.87743 10.7411 6.72492 10.6779 6.61241 10.5656L4.67629 8.62946C4.44428 8.39744 4.44428 8.01342 4.67629 7.78141C4.9083 7.54939 5.29233 7.54939 5.52434 7.78141L7.03644 9.2935L10.4767 5.85329C10.7087 5.62127 11.0927 5.62127 11.3247 5.85329C11.5567 6.0853 11.5567 6.46933 11.3247 6.70134Z" fill="#EE6C4D"/>
</svg>
