<svg width="33" height="33" viewBox="0 0 33 33" fill="none" xmlns="http://www.w3.org/2000/svg">
<path d="M16.8003 6.1832C15.5058 6.18336 14.244 6.43402 13.0506 6.92844L9.94301 9.12395L9.8723 9.05324C9.8723 9.05324 9.8723 9.05324 9.87229 9.05324C8.0217 10.9038 7.00238 13.3649 7.00238 15.982C7.00238 17.5284 7.37206 19.0653 8.07295 20.4377L6.4569 25.0545L6.4569 25.0545C6.3293 25.4193 6.4198 25.8166 6.69329 26.09C6.88435 26.2812 7.13656 26.3832 7.39609 26.3832C7.50731 26.3832 7.61949 26.3645 7.72866 26.3263L7.69562 26.2319L7.72866 26.3263L12.3454 24.7104C13.7179 25.4113 15.2547 25.7809 16.8012 25.7809C19.4183 25.7809 21.8792 24.7615 23.7299 22.9109C25.5806 21.0604 26.6 18.5993 26.6 15.9822C26.6 13.3649 25.5807 10.9038 23.73 9.05324C21.8793 7.20249 19.4187 6.1832 16.8012 6.1832H16.8003ZM12.8458 23.4229L12.8458 23.4228C12.5992 23.2917 12.3076 23.2691 12.0453 23.3609L8.01007 24.7731L9.42243 20.7379L9.42244 20.7379C9.5143 20.4753 9.49145 20.1838 9.36036 19.9373L9.36034 19.9372C8.71604 18.7268 8.37535 17.359 8.37535 15.982C8.37535 13.7313 9.25165 11.6156 10.8432 10.0241L10.7725 9.9534L10.8432 10.0241C12.4345 8.43274 14.5499 7.55644 16.8004 7.55613H16.8012C19.052 7.55613 21.1676 8.43243 22.7591 10.0241L22.8298 9.9534L22.7591 10.0241C24.3508 11.6156 25.2271 13.7311 25.2271 15.982C25.2271 18.2328 24.3508 20.3485 22.7591 21.94L22.8298 22.0107L22.7591 21.94C21.1676 23.5317 19.0519 24.4079 16.8012 24.4079C15.4244 24.4079 14.0566 24.0673 12.8458 23.4229Z" fill="#98C1D9" stroke="#98C1D9" stroke-width="0.2"/>
<path d="M18.7167 16.7778L18.7166 16.7778L18.2819 17.2126C17.1389 16.5743 16.2091 15.6445 15.5707 14.5015L16.0054 14.0667C16.0054 14.0667 16.0055 14.0667 16.0055 14.0667C16.4908 13.5815 16.4908 12.7922 16.0054 12.3069L14.6905 10.9919C14.2052 10.5067 13.4159 10.5067 12.9307 10.9919L11.8787 12.0439C11.2312 12.6915 11.2202 13.7815 11.7729 15.071L11.8648 15.0316L11.7729 15.071C12.2549 16.1956 13.134 17.426 14.2457 18.5377C15.3574 19.6493 16.5877 20.5285 17.7124 21.0105L17.7518 20.9186L17.7124 21.0105C18.3281 21.2744 18.8943 21.4088 19.3892 21.4088C19.9373 21.4088 20.4006 21.2435 20.7395 20.9046L20.7395 20.9046L21.6208 20.0232V20.0234L21.7915 19.8527C22.0264 19.6177 22.156 19.305 22.156 18.9728C22.156 18.6405 22.0265 18.3278 21.7914 18.0929C21.7914 18.0929 21.7914 18.0929 21.7914 18.0929L20.4764 16.7778C19.9912 16.2925 19.2019 16.2925 18.7167 16.7778ZM19.7686 19.9337L19.7686 19.9337C19.7122 19.9901 19.5722 20.0481 19.3137 20.0357C19.0598 20.0234 18.7084 19.9436 18.2533 19.7486C17.292 19.3367 16.2126 18.5628 15.2166 17.5668C14.2206 16.5708 13.4469 15.4915 13.0349 14.5301L13.0349 14.5301C12.8399 14.0751 12.76 13.7237 12.7477 13.4698C12.7353 13.2112 12.7933 13.0711 12.8496 13.0148L13.8107 12.0537L14.9437 13.1868L14.4036 13.7271C14.4036 13.7271 14.4036 13.7271 14.4036 13.7271C14.0969 14.0338 14.0226 14.4995 14.2195 14.8856C15.0322 16.479 16.3044 17.7512 17.8978 18.5639L17.8978 18.5639C18.284 18.7607 18.7497 18.6867 19.0565 18.3797C19.0565 18.3797 19.0565 18.3797 19.0565 18.3797L19.5966 17.8397L20.7297 18.9728L19.7686 19.9337Z" fill="#98C1D9" stroke="#98C1D9" stroke-width="0.2"/>
</svg>
