<svg width="25" height="25" viewBox="0 0 25 25" fill="none" xmlns="http://www.w3.org/2000/svg">
<path d="M12.8003 2.88975C11.5058 2.8899 10.244 3.14056 9.05063 3.63498L5.94301 5.83049L5.8723 5.75978C5.8723 5.75978 5.8723 5.75978 5.87229 5.75978C4.0217 7.61033 3.00238 10.0714 3.00238 12.6885C3.00238 14.235 3.37206 15.7718 4.07295 17.1443L2.4569 21.761L2.4569 21.7611C2.3293 22.1258 2.4198 22.5232 2.69329 22.7965C2.88435 22.9877 3.13656 23.0898 3.39609 23.0898C3.50731 23.0898 3.61949 23.0711 3.72866 23.0329L3.69562 22.9385L3.72866 23.0329L8.34544 21.417C9.71793 22.1178 11.2547 22.4875 12.8012 22.4875C15.4183 22.4875 17.8792 21.468 19.7299 19.6175C21.5806 17.7669 22.6 15.3058 22.6 12.6887C22.6 10.0714 21.5807 7.61033 19.73 5.75978C17.8793 3.90903 15.4187 2.88975 12.8012 2.88975H12.8003ZM8.84581 20.1294L8.84577 20.1294C8.59916 19.9983 8.30755 19.9756 8.04527 20.0674L4.01007 21.4797L5.42243 17.4445L5.42244 17.4445C5.5143 17.1819 5.49145 16.8903 5.36036 16.6438L5.36034 16.6438C4.71604 15.4333 4.37535 14.0655 4.37535 12.6885C4.37535 10.4378 5.25165 8.32213 6.84317 6.73065L6.77246 6.65994L6.84317 6.73065C8.43454 5.13929 10.5499 4.26299 12.8004 4.26268H12.8012C15.052 4.26268 17.1676 5.13898 18.7591 6.73065L18.8298 6.65994L18.7591 6.73066C20.3508 8.32218 21.2271 10.4377 21.2271 12.6885C21.2271 14.9394 20.3508 17.0551 18.7591 18.6466L18.8298 18.7173L18.7591 18.6466C17.1676 20.2383 15.0519 21.1144 12.8012 21.1144C11.4244 21.1144 10.0566 20.7739 8.84581 20.1294Z" fill="#98C1D9" stroke="#98C1D9" stroke-width="0.2"/>
<path d="M14.7167 13.4843L14.7166 13.4843L14.2819 13.9191C13.1389 13.2808 12.2091 12.351 11.5707 11.208L12.0054 10.7732C12.0054 10.7732 12.0055 10.7732 12.0055 10.7732C12.4908 10.288 12.4908 9.4987 12.0054 9.01344L10.6905 7.69849C10.2052 7.21326 9.4159 7.21326 8.93067 7.69849L7.87872 8.75044C7.23117 9.39799 7.22023 10.488 7.77287 11.7775L7.86478 11.7381L7.77287 11.7775C8.2549 12.9022 9.13404 14.1325 10.2457 15.2442C11.3574 16.3559 12.5877 17.235 13.7124 17.7171L13.7518 17.6251L13.7124 17.7171C14.3281 17.9809 14.8943 18.1153 15.3892 18.1153C15.9373 18.1153 16.4006 17.95 16.7395 17.6112L16.7395 17.6112L17.6208 16.7298V16.7299L17.7915 16.5592C18.0264 16.3242 18.156 16.0115 18.156 15.6794C18.156 15.347 18.0265 15.0343 17.7914 14.7995C17.7914 14.7995 17.7914 14.7994 17.7914 14.7994L16.4764 13.4843C15.9912 12.9991 15.2019 12.9991 14.7167 13.4843ZM15.7686 16.6403L15.7686 16.6403C15.7122 16.6967 15.5722 16.7546 15.3137 16.7422C15.0598 16.73 14.7084 16.6501 14.2533 16.4552C13.292 16.0432 12.2126 15.2694 11.2166 14.2733C10.2206 13.2773 9.44688 12.1981 9.0349 11.2367L9.0349 11.2367C8.83985 10.7817 8.75998 10.4303 8.74775 10.1763C8.73529 9.91777 8.79326 9.77769 8.84963 9.72132L9.81072 8.76023L10.9437 9.89335L10.4036 10.4336C10.4036 10.4336 10.4036 10.4336 10.4036 10.4336C10.0969 10.7403 10.0226 11.2061 10.2195 11.5921C11.0322 13.1856 12.3044 14.4577 13.8978 15.2704L13.8978 15.2704C14.284 15.4673 14.7497 15.3932 15.0565 15.0863C15.0565 15.0863 15.0565 15.0863 15.0565 15.0863L15.5966 14.5462L16.7297 15.6794L15.7686 16.6403Z" fill="#98C1D9" stroke="#98C1D9" stroke-width="0.2"/>
</svg>
