<svg width="303" height="730" viewBox="0 0 303 730" fill="none" xmlns="http://www.w3.org/2000/svg">
<path fill-rule="evenodd" clip-rule="evenodd" d="M388.423 609.972L406.262 549.386C322.606 524.754 234.829 572.606 210.199 656.253L270.785 674.092C285.563 623.904 338.235 595.194 388.423 609.972ZM314.703 860.341L359.301 708.876L207.836 664.278L163.238 815.743L314.703 860.341ZM296.4 826.761L196.818 797.44L226.139 697.858L325.722 727.179L296.4 826.761ZM408.623 541.36L257.158 496.763L301.756 345.298L453.221 389.896L408.623 541.36ZM320.059 378.877L290.738 478.46L390.32 507.781L419.641 408.199L320.059 378.877ZM169.879 753.198L161.97 780.057L78.0308 626.058L104.891 633.967L169.879 753.198ZM175.493 734.132L183.401 707.272L150.816 647.489L123.956 639.581L175.493 734.132ZM58.9651 620.445L45.5352 616.49L41.5809 629.92L138.972 808.599L152.402 812.553L156.357 799.123L58.9651 620.445ZM35.9671 648.986L28.0584 675.846L93.0469 795.076L119.907 802.985L35.9671 648.986ZM0.937401 767.955L28.0557 775.94L8.92222 740.837L0.937401 767.955ZM197 661.088L169.882 653.103L189.015 688.206L197 661.088ZM22.4447 694.911L14.536 721.771L47.1215 781.554L73.9812 789.462L22.4447 694.911ZM47.9396 608.331L199.404 652.928L244.002 501.464L47.9396 608.331ZM139.537 297.242L94.9393 448.707L246.404 493.305L291.002 341.84L139.537 297.242ZM208.051 56.8254C220.366 15.0021 264.253 -8.91955 306.077 3.39506C347.9 15.7097 371.821 59.5973 359.507 101.421C347.192 143.244 303.305 167.166 261.481 154.851C219.658 142.536 195.736 98.6488 208.051 56.8254ZM329.223 92.5037C336.612 67.4097 322.26 41.0795 297.166 33.6907C272.072 26.302 245.742 40.6536 238.353 65.7476C230.964 90.8416 245.316 117.172 270.41 124.561C295.504 131.949 321.834 117.598 329.223 92.5037ZM262 328.363L292.293 337.282L336.891 185.818L185.426 141.22L176.506 171.513L297.678 207.191L262 328.363Z" fill="url(#paint0_linear_573_4530)"/>
<defs>
<linearGradient id="paint0_linear_573_4530" x1="430.455" y1="467.221" x2="114.597" y2="374.218" gradientUnits="userSpaceOnUse">
<stop stop-color="#005CFF"/>
<stop offset="1" stop-color="#EAD1FF"/>
</linearGradient>
</defs>
</svg>
